<svg width="35" height="35" viewBox="0 0 35 35" fill="none" xmlns="http://www.w3.org/2000/svg">
<path d="M16.041 5.83398H5.83268C5.05913 5.83398 4.31727 6.14128 3.77029 6.68826C3.22331 7.23524 2.91602 7.9771 2.91602 8.75065V29.1673C2.91602 29.9409 3.22331 30.6827 3.77029 31.2297C4.31727 31.7767 5.05913 32.084 5.83268 32.084H26.2493C27.0229 32.084 27.7648 31.7767 28.3117 31.2297C28.8587 30.6827 29.166 29.9409 29.166 29.1673V18.959" stroke="#2870ED" stroke-width="1.99832" stroke-linecap="round" stroke-linejoin="round"/>
<path d="M26.9785 3.64633C27.5587 3.06617 28.3455 2.74023 29.166 2.74023C29.9865 2.74023 30.7734 3.06617 31.3535 3.64633C31.9337 4.22649 32.2596 5.01335 32.2596 5.83383C32.2596 6.6543 31.9337 7.44117 31.3535 8.02133L17.4993 21.8755L11.666 23.3338L13.1243 17.5005L26.9785 3.64633Z" stroke="#2870ED" stroke-width="1.99832" stroke-linecap="round" stroke-linejoin="round"/>
</svg>
