<svg width="35" height="35" viewBox="0 0 35 35" fill="none" xmlns="http://www.w3.org/2000/svg">
<g clip-path="url(#clip0_196_2633)">
<path d="M1.45898 1.45898L33.5423 33.5423" stroke="#E63D43" stroke-width="1.99832" stroke-linecap="round" stroke-linejoin="round"/>
<path d="M21.875 13.62V5.83253C21.8761 4.74757 21.474 3.70091 20.7468 2.89574C20.0196 2.09057 19.0191 1.58432 17.9397 1.47528C16.8602 1.36625 15.7787 1.6622 14.9052 2.30568C14.0317 2.94916 13.4284 3.89427 13.2125 4.95753M13.125 13.1242V17.4992C13.1258 18.3639 13.3828 19.209 13.8635 19.9278C14.3443 20.6466 15.0273 21.2067 15.8263 21.5375C16.6252 21.8684 17.5043 21.955 18.3525 21.7865C19.2006 21.618 19.9798 21.2019 20.5917 20.5909L13.125 13.1242Z" stroke="#E63D43" stroke-width="1.99832" stroke-linecap="round" stroke-linejoin="round"/>
<path d="M27.708 14.584V17.5007C27.7074 18.1021 27.6538 18.7024 27.5475 19.2944M24.7913 24.7194C23.3676 26.1725 21.5423 27.1671 19.5495 27.5757C17.5566 27.9842 15.4872 27.788 13.6066 27.0123C11.726 26.2366 10.1201 24.9167 8.99487 23.2219C7.86964 21.5272 7.27641 19.5349 7.29129 17.5007V14.584L24.7913 24.7194Z" stroke="#E63D43" stroke-width="1.99832" stroke-linecap="round" stroke-linejoin="round"/>
<path d="M17.5 27.709V33.5423" stroke="#E63D43" stroke-width="1.99832" stroke-linecap="round" stroke-linejoin="round"/>
<path d="M11.666 33.541H23.3327" stroke="#E63D43" stroke-width="1.99832" stroke-linecap="round" stroke-linejoin="round"/>
</g>
<defs>
<clipPath id="clip0_196_2633">
<rect width="35" height="35" fill="white"/>
</clipPath>
</defs>
</svg>
