<svg width="45" height="30" viewBox="0 0 45 30" fill="none" xmlns="http://www.w3.org/2000/svg">
<rect width="45" height="30" rx="3" fill="#2870ED"/>
<path d="M15 14C14.4477 14 14 14.4477 14 15C14 15.5523 14.4477 16 15 16V15V14ZM30.7071 15.7071C31.0976 15.3166 31.0976 14.6834 30.7071 14.2929L24.3431 7.92893C23.9526 7.53841 23.3195 7.53841 22.9289 7.92893C22.5384 8.31946 22.5384 8.95262 22.9289 9.34315L28.5858 15L22.9289 20.6569C22.5384 21.0474 22.5384 21.6805 22.9289 22.0711C23.3195 22.4616 23.9526 22.4616 24.3431 22.0711L30.7071 15.7071ZM15 15V16H30V15V14H15V15Z" fill="white"/>
</svg>
