<svg width="35" height="35" viewBox="0 0 35 35" fill="none" xmlns="http://www.w3.org/2000/svg">
<path d="M8.75 2.91602L4.375 8.74935V29.166C4.375 29.9396 4.68229 30.6814 5.22927 31.2284C5.77625 31.7754 6.51812 32.0827 7.29167 32.0827H27.7083C28.4819 32.0827 29.2237 31.7754 29.7707 31.2284C30.3177 30.6814 30.625 29.9396 30.625 29.166V8.74935L26.25 2.91602H8.75Z" stroke="#2870ED" stroke-width="1.99832" stroke-linecap="round" stroke-linejoin="round"/>
<path d="M4.375 8.75H30.625" stroke="#2870ED" stroke-width="1.99832" stroke-linecap="round" stroke-linejoin="round"/>
<path d="M23.3327 14.584C23.3327 16.1311 22.7181 17.6148 21.6241 18.7088C20.5302 19.8027 19.0464 20.4173 17.4993 20.4173C15.9523 20.4173 14.4685 19.8027 13.3746 18.7088C12.2806 17.6148 11.666 16.1311 11.666 14.584" stroke="#2870ED" stroke-width="1.99832" stroke-linecap="round" stroke-linejoin="round"/>
</svg>
