<svg width="35" height="35" viewBox="0 0 35 35" fill="none" xmlns="http://www.w3.org/2000/svg">
<path d="M4.37476 8.75H7.29142H30.6248" stroke="#2870ED" stroke-width="1.99832" stroke-linecap="round" stroke-linejoin="round"/>
<path d="M11.666 8.74935V5.83268C11.666 5.05913 11.9733 4.31727 12.5203 3.77029C13.0673 3.22331 13.8091 2.91602 14.5827 2.91602H20.416C21.1896 2.91602 21.9314 3.22331 22.4784 3.77029C23.0254 4.31727 23.3327 5.05913 23.3327 5.83268V8.74935M27.7077 8.74935V29.166C27.7077 29.9396 27.4004 30.6814 26.8534 31.2284C26.3064 31.7754 25.5646 32.0827 24.791 32.0827H10.2077C9.43413 32.0827 8.69227 31.7754 8.14529 31.2284C7.59831 30.6814 7.29102 29.9396 7.29102 29.166V8.74935H27.7077Z" stroke="#2870ED" stroke-width="1.99832" stroke-linecap="round" stroke-linejoin="round"/>
<path d="M14.584 16.041V24.791" stroke="#2870ED" stroke-width="1.99832" stroke-linecap="round" stroke-linejoin="round"/>
<path d="M20.416 16.041V24.791" stroke="#2870ED" stroke-width="1.99832" stroke-linecap="round" stroke-linejoin="round"/>
</svg>
