<svg width="35" height="35" viewBox="0 0 35 35" fill="none" xmlns="http://www.w3.org/2000/svg">
<path d="M30.6248 14.582C30.6248 24.7904 17.4998 33.5404 17.4998 33.5404C17.4998 33.5404 4.37476 24.7904 4.37476 14.582C4.37476 11.1011 5.75756 7.76267 8.21898 5.30125C10.6804 2.83984 14.0188 1.45703 17.4998 1.45703C20.9807 1.45703 24.3191 2.83984 26.7805 5.30125C29.2419 7.76267 30.6248 11.1011 30.6248 14.582Z" stroke="#2870ED" stroke-width="1.99832" stroke-linecap="round" stroke-linejoin="round"/>
<path d="M17.5 18.959C19.9162 18.959 21.875 17.0002 21.875 14.584C21.875 12.1677 19.9162 10.209 17.5 10.209C15.0838 10.209 13.125 12.1677 13.125 14.584C13.125 17.0002 15.0838 18.959 17.5 18.959Z" stroke="#2870ED" stroke-width="1.99832" stroke-linecap="round" stroke-linejoin="round"/>
</svg>
