<svg width="201" height="146" viewBox="0 0 201 146" fill="none" xmlns="http://www.w3.org/2000/svg">
<path d="M21.005 69.7306L0.5 27.6806V145.131H200.5V0.130615L189.511 40.7306L181.139 9.79728L173.237 40.7306L168.135 21.8806V50.3973L158.193 13.6639L144.035 27.6806L138.176 21.8806L135.247 42.1806L131.83 13.6639L122.065 46.0473L119.624 6.89728L115.718 32.5139L98.1428 76.9806L91.2265 18.9806L88.2177 30.0973V61.5139L75.9209 16.0806L72.5385 21.8806L70.3146 13.6639L56.1564 50.3973V33.9639L51.7625 42.1806L47.4357 74.5639L42.0802 65.3806V42.1806L32.1381 78.9139L26.7826 69.7306L24.9512 62.9639L21.005 69.7306Z" fill="#EFEFF4" stroke="#CED9E4" stroke-linecap="round"/>
</svg>